<?xml version="1.0" standalone="no"?><svg xmlns="http://www.w3.org/2000/svg" viewBox="0 0 1440 320"><path fill="#1D1E31" fill-opacity="1" d="M0,96L15,133.3C30,171,60,245,90,234.7C120,224,150,128,180,90.7C210,53,240,75,270,122.7C300,171,330,245,360,256C390,267,420,213,450,192C480,171,510,181,540,181.3C570,181,600,171,630,170.7C660,171,690,181,720,192C750,203,780,213,810,197.3C840,181,870,139,900,149.3C930,160,960,224,990,213.3C1020,203,1050,117,1080,74.7C1110,32,1140,32,1170,69.3C1200,107,1230,181,1260,186.7C1290,192,1320,128,1350,122.7C1380,117,1410,171,1425,197.3L1440,224L1440,320L1425,320C1410,320,1380,320,1350,320C1320,320,1290,320,1260,320C1230,320,1200,320,1170,320C1140,320,1110,320,1080,320C1050,320,1020,320,990,320C960,320,930,320,900,320C870,320,840,320,810,320C780,320,750,320,720,320C690,320,660,320,630,320C600,320,570,320,540,320C510,320,480,320,450,320C420,320,390,320,360,320C330,320,300,320,270,320C240,320,210,320,180,320C150,320,120,320,90,320C60,320,30,320,15,320L0,320Z"></path></svg>