<?xml version="1.0" standalone="no"?><svg xmlns="http://www.w3.org/2000/svg" viewBox="0 0 1440 320"><path fill="#1d1e31" fill-opacity="1" d="M0,256L14.1,261.3C28.2,267,56,277,85,288C112.9,299,141,309,169,304C197.6,299,226,277,254,240C282.4,203,311,149,339,112C367.1,75,395,53,424,69.3C451.8,85,480,139,508,165.3C536.5,192,565,192,593,192C621.2,192,649,192,678,213.3C705.9,235,734,277,762,250.7C790.6,224,819,128,847,85.3C875.3,43,904,53,932,90.7C960,128,988,192,1016,181.3C1044.7,171,1073,85,1101,90.7C1129.4,96,1158,192,1186,197.3C1214.1,203,1242,117,1271,96C1298.8,75,1327,117,1355,154.7C1383.5,192,1412,224,1426,240L1440,256L1440,0L1425.9,0C1411.8,0,1384,0,1355,0C1327.1,0,1299,0,1271,0C1242.4,0,1214,0,1186,0C1157.6,0,1129,0,1101,0C1072.9,0,1045,0,1016,0C988.2,0,960,0,932,0C903.5,0,875,0,847,0C818.8,0,791,0,762,0C734.1,0,706,0,678,0C649.4,0,621,0,593,0C564.7,0,536,0,508,0C480,0,452,0,424,0C395.3,0,367,0,339,0C310.6,0,282,0,254,0C225.9,0,198,0,169,0C141.2,0,113,0,85,0C56.5,0,28,0,14,0L0,0Z"></path></svg>